<?xml version="1.0" encoding="UTF-8" standalone="no"?><!-- Generator: Gravit.io --><svg xmlns="http://www.w3.org/2000/svg" xmlns:xlink="http://www.w3.org/1999/xlink" style="isolation:isolate" viewBox="0 0 96 339.2" width="96pt" height="339.2pt"><defs><clipPath id="_clipPath_yxb3VDAOhEEmJ66he3Q6Sr8JT6A5W5Y3"><rect width="96" height="339.2"/></clipPath></defs><g clip-path="url(#_clipPath_yxb3VDAOhEEmJ66he3Q6Sr8JT6A5W5Y3)"><g><g><path d=" M 1.753 298.039 C -3.747 291.939 4.853 282.739 11.553 288.839 C 25.653 301.739 36.653 315.739 52.553 325.539 C 64.753 312.039 73.953 296.139 86.253 282.739 C 90.553 277.839 98.453 285.239 93.553 290.039 C 80.053 304.739 70.253 321.839 57.453 337.139 C 55.653 339.639 52.553 339.639 50.153 338.339 C 31.153 328.639 15.853 313.339 1.753 298.039 Z " fill="rgb(52,49,71)"/><path d=" M 46.453 36.139 C 42.753 31.239 44.653 24.539 45.253 18.339 C 45.853 12.839 47.053 7.339 48.953 2.439 C 50.753 -1.861 58.153 0.039 56.853 4.939 C 55.653 11.039 55.053 17.139 55.053 23.339 C 55.053 28.239 56.253 32.539 53.253 36.239 C 51.353 38.539 48.253 38.539 46.453 36.139 Z " fill="rgb(52,49,71)"/><path d=" M 45.853 61.839 C 44.653 57.539 50.753 55.139 53.153 58.739 C 55.553 63.039 56.253 66.739 57.453 70.939 C 58.653 75.239 58.653 78.339 56.853 82.539 C 55.653 84.939 51.353 84.939 50.153 82.539 C 48.953 80.739 48.953 79.439 48.353 77.639 C 47.753 75.839 48.353 73.939 48.353 72.139 C 47.653 68.539 47.053 65.439 45.853 61.839 Z " fill="rgb(52,49,71)"/><path d=" M 50.153 137.139 C 47.053 133.439 48.353 130.439 49.553 126.739 C 49.553 123.639 50.153 120.639 50.153 117.539 C 50.153 112.639 56.853 112.639 57.453 117.539 C 57.453 121.239 58.053 124.239 58.053 127.939 C 58.053 131.639 58.653 134.039 56.253 137.139 C 54.353 138.939 51.353 138.939 50.153 137.139 Z " fill="rgb(52,49,71)"/><path d=" M 49.553 164.639 C 48.353 160.939 54.453 158.539 56.253 162.239 C 60.553 168.939 62.953 177.539 60.553 184.839 C 59.353 188.539 53.853 188.539 52.553 184.839 C 50.753 178.139 51.953 171.339 49.553 164.639 Z " fill="rgb(52,49,71)"/><path d=" M 53.753 242.939 C 50.053 238.639 51.353 233.139 52.553 228.239 C 52.553 223.939 52.553 220.239 53.153 216.039 C 53.753 212.339 59.853 212.339 60.453 216.039 C 61.053 220.339 61.053 225.239 61.053 229.539 C 61.053 234.439 62.253 239.339 58.653 243.039 C 57.453 244.139 55.053 244.139 53.753 242.939 Z " fill="rgb(52,49,71)"/><path d=" M 59.853 295.639 C 56.153 295.639 53.753 291.939 54.353 288.939 C 56.153 284.039 55.553 278.539 56.153 273.039 C 56.753 269.939 62.253 269.939 62.853 273.039 C 63.453 277.939 63.453 284.039 64.653 288.939 C 66.053 291.939 63.553 295.639 59.853 295.639 Z " fill="rgb(52,49,71)"/></g></g></g></svg>