<?xml version="1.0" encoding="UTF-8" standalone="no"?><!-- Generator: Gravit.io --><svg xmlns="http://www.w3.org/2000/svg" xmlns:xlink="http://www.w3.org/1999/xlink" style="isolation:isolate" viewBox="0 0 96 339.2" width="96pt" height="339.2pt"><defs><clipPath id="_clipPath_5Syt9zPT4JKV3lLJbwDpBfHtCOkV74i2"><rect width="96" height="339.2"/></clipPath></defs><g clip-path="url(#_clipPath_5Syt9zPT4JKV3lLJbwDpBfHtCOkV74i2)"><g><g><path d=" M 93.35 298.039 C 98.85 291.939 90.25 282.739 83.55 288.839 C 69.45 301.739 58.45 315.739 42.55 325.539 C 30.35 312.039 21.15 296.139 8.85 282.739 C 4.55 277.839 -3.35 285.239 1.55 290.039 C 15.05 304.739 24.85 321.839 37.65 337.139 C 39.45 339.639 42.55 339.639 44.95 338.339 C 63.95 328.639 79.25 313.339 93.35 298.039 Z " fill="rgb(52,49,71)"/><path d=" M 48.65 36.139 C 52.35 31.239 50.45 24.539 49.85 18.339 C 49.25 12.839 48.05 7.339 46.15 2.439 C 44.35 -1.861 36.95 0.039 38.25 4.939 C 39.45 11.039 40.05 17.139 40.05 23.339 C 40.05 28.239 38.85 32.539 41.85 36.239 C 43.75 38.539 46.85 38.539 48.65 36.139 Z " fill="rgb(52,49,71)"/><path d=" M 49.25 61.839 C 50.45 57.539 44.35 55.139 41.95 58.739 C 39.55 63.039 38.85 66.739 37.65 70.939 C 36.45 75.239 36.45 78.339 38.25 82.539 C 39.45 84.939 43.75 84.939 44.95 82.539 C 46.15 80.739 46.15 79.439 46.75 77.639 C 47.35 75.839 46.75 73.939 46.75 72.139 C 47.45 68.539 48.05 65.439 49.25 61.839 Z " fill="rgb(52,49,71)"/><path d=" M 44.95 137.139 C 48.05 133.439 46.75 130.439 45.55 126.739 C 45.55 123.639 44.95 120.639 44.95 117.539 C 44.95 112.639 38.25 112.639 37.65 117.539 C 37.65 121.239 37.05 124.239 37.05 127.939 C 37.05 131.639 36.45 134.039 38.85 137.139 C 40.75 138.939 43.75 138.939 44.95 137.139 Z " fill="rgb(52,49,71)"/><path d=" M 45.55 164.639 C 46.75 160.939 40.65 158.539 38.85 162.239 C 34.55 168.939 32.15 177.539 34.55 184.839 C 35.75 188.539 41.25 188.539 42.55 184.839 C 44.35 178.139 43.15 171.339 45.55 164.639 Z " fill="rgb(52,49,71)"/><path d=" M 41.35 242.939 C 45.05 238.639 43.75 233.139 42.55 228.239 C 42.55 223.939 42.55 220.239 41.95 216.039 C 41.35 212.339 35.25 212.339 34.65 216.039 C 34.05 220.339 34.05 225.239 34.05 229.539 C 34.05 234.439 32.85 239.339 36.45 243.039 C 37.65 244.139 40.05 244.139 41.35 242.939 Z " fill="rgb(52,49,71)"/><path d=" M 35.25 295.639 C 38.95 295.639 41.35 291.939 40.75 288.939 C 38.95 284.039 39.55 278.539 38.95 273.039 C 38.35 269.939 32.85 269.939 32.25 273.039 C 31.65 277.939 31.65 284.039 30.45 288.939 C 29.05 291.939 31.55 295.639 35.25 295.639 Z " fill="rgb(52,49,71)"/></g></g></g></svg>