<?xml version="1.0" encoding="UTF-8" standalone="no"?><!-- Generator: Gravit.io --><svg xmlns="http://www.w3.org/2000/svg" xmlns:xlink="http://www.w3.org/1999/xlink" style="isolation:isolate" viewBox="0 0 512 446.8" width="512pt" height="446.8pt"><defs><clipPath id="_clipPath_zxEX2DqNsghDSQDP9cjwIE9DfAddqwDK"><rect width="512" height="446.8"/></clipPath></defs><g clip-path="url(#_clipPath_zxEX2DqNsghDSQDP9cjwIE9DfAddqwDK)"><g><path d=" M 509.5 3 C 507.2 0.8 503.8 0.1 500.8 1.2 L 5.2 193.7 C 2.3 194.8 0.2 197.6 0 200.7 C -0.2 203.8 1.4 206.8 4.1 208.4 L 106.8 266.3 L 142.5 440.6 C 142.7 441.8 143.2 443 143.9 444 C 144 444.1 144 444.2 144.1 444.3 C 145.4 445.9 147.1 447 149.2 447.3 C 149.5 447.3 149.7 447.4 150 447.4 C 150.2 447.4 150.3 447.4 150.5 447.4 C 152.1 447.4 153.5 447 154.8 446.2 C 155.2 445.9 155.6 445.6 156 445.3 C 156.1 445.2 156.2 445.1 156.3 445 L 233.6 367.5 C 236.8 364.3 236.8 359.1 233.6 355.9 C 230.4 352.7 225.2 352.7 222 355.9 L 161.3 416.8 L 174.4 304.4 L 360 406.1 C 361.9 407.1 363.9 407.3 365.8 406.9 C 366 406.8 366.2 406.8 366.4 406.7 C 368.3 406.1 369.9 404.8 371 403 C 371.1 402.9 371.1 402.8 371.1 402.7 C 371.3 402.3 371.5 401.9 371.6 401.5 L 511.4 11.5 C 512.6 8.6 511.8 5.2 509.5 3 Z  M 27.2 202.7 L 432.4 45.4 L 113.8 251.5 L 27.2 202.7 Z  M 162.7 284.9 C 161.9 285.5 161.3 286.3 160.8 287.2 C 160.7 287.3 160.7 287.4 160.6 287.6 C 160.1 288.6 159.8 289.6 159.7 290.6 L 148.4 387.7 L 123.3 265 L 398.4 87 L 162.7 284.9 Z  M 359.5 387.2 L 182.2 289.9 L 485.9 34.6 L 359.5 387.2 Z " fill="rgb(255,255,255)"/></g></g></svg>